{
	"asset":{
		"generator":"Khronos glTF Blender I/O v4.0.44",
		"version":"2.0"
	},
	"scene":0,
	"scenes":[
		{
			"name":"Scene",
			"nodes":[
				0
			]
		}
	],
	"nodes":[
		{
			"mesh":0,
			"name":"Mesh_0"
		}
	],
	"materials":[
		{
			"name":"Material_0",
			"pbrMetallicRoughness":{
				"baseColorTexture":{
					"index":0
				},
				"metallicFactor":0
			}
		}
	],
	"meshes":[
		{
			"name":"Mesh_0",
			"primitives":[
				{
					"attributes":{
						"POSITION":0,
						"NORMAL":1,
						"TEXCOORD_0":2
					},
					"indices":3,
					"material":0
				}
			]
		}
	],
	"textures":[
		{
			"sampler":0,
			"source":0
		}
	],
	"images":[
		{
			"mimeType":"image/jpeg",
			"name":"M2020_Rover_Texture",
			"uri":"M2020_Rover_Texture.jpg"
		}
	],
	"accessors":[
		{
			"bufferView":0,
			"componentType":5126,
			"count":3742,
			"max":[
				0.28877899050712585,
				0.03264569863677025,
				0.03266049921512604
			],
			"min":[
				0.1580599993467331,
				-0.03280330076813698,
				-0.032052699476480484
			],
			"type":"VEC3"
		},
		{
			"bufferView":1,
			"componentType":5126,
			"count":3742,
			"type":"VEC3"
		},
		{
			"bufferView":2,
			"componentType":5126,
			"count":3742,
			"type":"VEC2"
		},
		{
			"bufferView":3,
			"componentType":5123,
			"count":3900,
			"type":"SCALAR"
		}
	],
	"bufferViews":[
		{
			"buffer":0,
			"byteLength":44904,
			"byteOffset":0,
			"target":34962
		},
		{
			"buffer":0,
			"byteLength":44904,
			"byteOffset":44904,
			"target":34962
		},
		{
			"buffer":0,
			"byteLength":29936,
			"byteOffset":89808,
			"target":34962
		},
		{
			"buffer":0,
			"byteLength":7800,
			"byteOffset":119744,
			"target":34963
		}
	],
	"samplers":[
		{
			"magFilter":9729,
			"minFilter":9987
		}
	],
	"buffers":[
		{
			"byteLength":127544,
			"uri":"AbradingBitInTurretAtZeroFeed.bin"
		}
	]
}
