{
	"asset":{
		"generator":"Khronos glTF Blender I/O v4.0.44",
		"version":"2.0"
	},
	"scene":0,
	"scenes":[
		{
			"name":"Scene",
			"nodes":[
				0
			]
		}
	],
	"nodes":[
		{
			"mesh":0,
			"name":"Mesh_0"
		}
	],
	"materials":[
		{
			"name":"Material_0",
			"pbrMetallicRoughness":{
				"baseColorTexture":{
					"index":0
				},
				"metallicFactor":0
			}
		}
	],
	"meshes":[
		{
			"name":"Mesh_0",
			"primitives":[
				{
					"attributes":{
						"POSITION":0,
						"NORMAL":1,
						"TEXCOORD_0":2
					},
					"indices":3,
					"material":0
				}
			]
		}
	],
	"textures":[
		{
			"sampler":0,
			"source":0
		}
	],
	"images":[
		{
			"mimeType":"image/jpeg",
			"name":"M2020_Rover_Texture",
			"uri":"M2020_Rover_Texture.jpg"
		}
	],
	"accessors":[
		{
			"bufferView":0,
			"componentType":5126,
			"count":61386,
			"max":[
				3.009399890899658,
				0.6318989992141724,
				-0.190838024020195
			],
			"min":[
				2.052999973297119,
				0.2829999625682831,
				-0.42991402745246887
			],
			"type":"VEC3"
		},
		{
			"bufferView":1,
			"componentType":5126,
			"count":61386,
			"type":"VEC3"
		},
		{
			"bufferView":2,
			"componentType":5126,
			"count":61386,
			"type":"VEC2"
		},
		{
			"bufferView":3,
			"componentType":5123,
			"count":66039,
			"type":"SCALAR"
		}
	],
	"bufferViews":[
		{
			"buffer":0,
			"byteLength":736632,
			"byteOffset":0,
			"target":34962
		},
		{
			"buffer":0,
			"byteLength":736632,
			"byteOffset":736632,
			"target":34962
		},
		{
			"buffer":0,
			"byteLength":491088,
			"byteOffset":1473264,
			"target":34962
		},
		{
			"buffer":0,
			"byteLength":132078,
			"byteOffset":1964352,
			"target":34963
		}
	],
	"samplers":[
		{
			"magFilter":9729,
			"minFilter":9987
		}
	],
	"buffers":[
		{
			"byteLength":2096432,
			"uri":"Arm_LINK_3.bin"
		}
	]
}
