{
	"asset":{
		"generator":"Khronos glTF Blender I/O v4.0.44",
		"version":"2.0"
	},
	"scene":0,
	"scenes":[
		{
			"name":"Scene",
			"nodes":[
				0
			]
		}
	],
	"nodes":[
		{
			"mesh":0,
			"name":"Mesh_0"
		}
	],
	"materials":[
		{
			"name":"Material_0",
			"pbrMetallicRoughness":{
				"baseColorTexture":{
					"index":0
				},
				"metallicFactor":0
			}
		}
	],
	"meshes":[
		{
			"name":"Mesh_0",
			"primitives":[
				{
					"attributes":{
						"POSITION":0,
						"NORMAL":1,
						"TEXCOORD_0":2
					},
					"indices":3,
					"material":0
				}
			]
		}
	],
	"textures":[
		{
			"sampler":0,
			"source":0
		}
	],
	"images":[
		{
			"mimeType":"image/jpeg",
			"name":"M2020_Rover_Texture",
			"uri":"M2020_Rover_Texture.jpg"
		}
	],
	"accessors":[
		{
			"bufferView":0,
			"componentType":5126,
			"count":8562,
			"max":[
				2.878230094909668,
				0.4178510010242462,
				-0.10346901416778564
			],
			"min":[
				2.5928099155426025,
				0.1096939817070961,
				-0.2897930443286896
			],
			"type":"VEC3"
		},
		{
			"bufferView":1,
			"componentType":5126,
			"count":8562,
			"type":"VEC3"
		},
		{
			"bufferView":2,
			"componentType":5126,
			"count":8562,
			"type":"VEC2"
		},
		{
			"bufferView":3,
			"componentType":5123,
			"count":9000,
			"type":"SCALAR"
		}
	],
	"bufferViews":[
		{
			"buffer":0,
			"byteLength":102744,
			"byteOffset":0,
			"target":34962
		},
		{
			"buffer":0,
			"byteLength":102744,
			"byteOffset":102744,
			"target":34962
		},
		{
			"buffer":0,
			"byteLength":68496,
			"byteOffset":205488,
			"target":34962
		},
		{
			"buffer":0,
			"byteLength":18000,
			"byteOffset":273984,
			"target":34963
		}
	],
	"samplers":[
		{
			"magFilter":9729,
			"minFilter":9987
		}
	],
	"buffers":[
		{
			"byteLength":291984,
			"uri":"Arm_LINK_5.bin"
		}
	]
}
