{
	"asset":{
		"generator":"Khronos glTF Blender I/O v4.0.44",
		"version":"2.0"
	},
	"scene":0,
	"scenes":[
		{
			"name":"Scene",
			"nodes":[
				0
			]
		}
	],
	"nodes":[
		{
			"mesh":0,
			"name":"Mesh_0"
		}
	],
	"materials":[
		{
			"name":"Material_0",
			"pbrMetallicRoughness":{
				"baseColorTexture":{
					"index":0
				},
				"metallicFactor":0
			}
		}
	],
	"meshes":[
		{
			"name":"Mesh_0",
			"primitives":[
				{
					"attributes":{
						"POSITION":0,
						"NORMAL":1,
						"TEXCOORD_0":2
					},
					"indices":3,
					"material":0
				}
			]
		}
	],
	"textures":[
		{
			"sampler":0,
			"source":0
		}
	],
	"images":[
		{
			"mimeType":"image/jpeg",
			"name":"M2020_Rover_Texture",
			"uri":"M2020_Rover_Texture.jpg"
		}
	],
	"accessors":[
		{
			"bufferView":0,
			"componentType":5126,
			"count":88175,
			"max":[
				2.2587199211120605,
				0.4109179675579071,
				-0.21375903487205505
			],
			"min":[
				1.25872004032135,
				0.169328972697258,
				-0.40935203433036804
			],
			"type":"VEC3"
		},
		{
			"bufferView":1,
			"componentType":5126,
			"count":88175,
			"type":"VEC3"
		},
		{
			"bufferView":2,
			"componentType":5126,
			"count":88175,
			"type":"VEC2"
		},
		{
			"bufferView":3,
			"componentType":5125,
			"count":97746,
			"type":"SCALAR"
		}
	],
	"bufferViews":[
		{
			"buffer":0,
			"byteLength":1058100,
			"byteOffset":0,
			"target":34962
		},
		{
			"buffer":0,
			"byteLength":1058100,
			"byteOffset":1058100,
			"target":34962
		},
		{
			"buffer":0,
			"byteLength":705400,
			"byteOffset":2116200,
			"target":34962
		},
		{
			"buffer":0,
			"byteLength":390984,
			"byteOffset":2821600,
			"target":34963
		}
	],
	"samplers":[
		{
			"magFilter":9729,
			"minFilter":9987
		}
	],
	"buffers":[
		{
			"byteLength":3212584,
			"uri":"Arm_LINK_2.bin"
		}
	]
}
