{
	"asset":{
		"generator":"Khronos glTF Blender I/O v4.0.44",
		"version":"2.0"
	},
	"scene":0,
	"scenes":[
		{
			"name":"Scene",
			"nodes":[
				0
			]
		}
	],
	"nodes":[
		{
			"mesh":0,
			"name":"Mesh_0"
		}
	],
	"materials":[
		{
			"name":"Material_0",
			"pbrMetallicRoughness":{
				"baseColorTexture":{
					"index":0
				},
				"metallicFactor":0
			}
		}
	],
	"meshes":[
		{
			"name":"Mesh_0",
			"primitives":[
				{
					"attributes":{
						"POSITION":0,
						"NORMAL":1,
						"TEXCOORD_0":2
					},
					"indices":3,
					"material":0
				}
			]
		}
	],
	"textures":[
		{
			"sampler":0,
			"source":0
		}
	],
	"images":[
		{
			"mimeType":"image/jpeg",
			"name":"M2020_Rover_Texture",
			"uri":"M2020_Rover_Texture.jpg"
		}
	],
	"accessors":[
		{
			"bufferView":0,
			"componentType":5126,
			"count":109263,
			"max":[
				2.9961299896240234,
				0.4000399708747864,
				-0.17692303657531738
			],
			"min":[
				2.624340057373047,
				0.16078197956085205,
				-0.5021679997444153
			],
			"type":"VEC3"
		},
		{
			"bufferView":1,
			"componentType":5126,
			"count":109263,
			"type":"VEC3"
		},
		{
			"bufferView":2,
			"componentType":5126,
			"count":109263,
			"type":"VEC2"
		},
		{
			"bufferView":3,
			"componentType":5125,
			"count":120330,
			"type":"SCALAR"
		}
	],
	"bufferViews":[
		{
			"buffer":0,
			"byteLength":1311156,
			"byteOffset":0,
			"target":34962
		},
		{
			"buffer":0,
			"byteLength":1311156,
			"byteOffset":1311156,
			"target":34962
		},
		{
			"buffer":0,
			"byteLength":874104,
			"byteOffset":2622312,
			"target":34962
		},
		{
			"buffer":0,
			"byteLength":481320,
			"byteOffset":3496416,
			"target":34963
		}
	],
	"samplers":[
		{
			"magFilter":9729,
			"minFilter":9987
		}
	],
	"buffers":[
		{
			"byteLength":3977736,
			"uri":"Arm_LINK_4.bin"
		}
	]
}
