{
	"asset":{
		"generator":"Khronos glTF Blender I/O v4.0.44",
		"version":"2.0"
	},
	"scene":0,
	"scenes":[
		{
			"name":"Scene",
			"nodes":[
				0
			]
		}
	],
	"nodes":[
		{
			"mesh":0,
			"name":"Mesh_0"
		}
	],
	"materials":[
		{
			"name":"Material_0",
			"pbrMetallicRoughness":{
				"baseColorTexture":{
					"index":0
				},
				"metallicFactor":0
			}
		}
	],
	"meshes":[
		{
			"name":"Mesh_0",
			"primitives":[
				{
					"attributes":{
						"POSITION":0,
						"NORMAL":1,
						"TEXCOORD_0":2
					},
					"indices":3,
					"material":0
				}
			]
		}
	],
	"textures":[
		{
			"sampler":0,
			"source":0
		}
	],
	"images":[
		{
			"mimeType":"image/jpeg",
			"name":"M2020_Rover_Texture",
			"uri":"M2020_Rover_Texture.jpg"
		}
	],
	"accessors":[
		{
			"bufferView":0,
			"componentType":5126,
			"count":147341,
			"max":[
				1.4609700441360474,
				0.6475039720535278,
				-0.12300802767276764
			],
			"min":[
				1.0541599988937378,
				0.28040897846221924,
				-0.4539690315723419
			],
			"type":"VEC3"
		},
		{
			"bufferView":1,
			"componentType":5126,
			"count":147341,
			"type":"VEC3"
		},
		{
			"bufferView":2,
			"componentType":5126,
			"count":147341,
			"type":"VEC2"
		},
		{
			"bufferView":3,
			"componentType":5125,
			"count":157326,
			"type":"SCALAR"
		}
	],
	"bufferViews":[
		{
			"buffer":0,
			"byteLength":1768092,
			"byteOffset":0,
			"target":34962
		},
		{
			"buffer":0,
			"byteLength":1768092,
			"byteOffset":1768092,
			"target":34962
		},
		{
			"buffer":0,
			"byteLength":1178728,
			"byteOffset":3536184,
			"target":34962
		},
		{
			"buffer":0,
			"byteLength":629304,
			"byteOffset":4714912,
			"target":34963
		}
	],
	"samplers":[
		{
			"magFilter":9729,
			"minFilter":9987
		}
	],
	"buffers":[
		{
			"byteLength":5344216,
			"uri":"Arm_LINK_1.bin"
		}
	]
}
