{
	"asset":{
		"generator":"Khronos glTF Blender I/O v4.0.44",
		"version":"2.0"
	},
	"scene":0,
	"scenes":[
		{
			"name":"Scene",
			"nodes":[
				0
			]
		}
	],
	"nodes":[
		{
			"mesh":0,
			"name":"Mesh_0"
		}
	],
	"materials":[
		{
			"name":"Material_0",
			"pbrMetallicRoughness":{
				"baseColorTexture":{
					"index":0
				},
				"metallicFactor":0
			}
		}
	],
	"meshes":[
		{
			"name":"Mesh_0",
			"primitives":[
				{
					"attributes":{
						"POSITION":0,
						"NORMAL":1,
						"TEXCOORD_0":2
					},
					"indices":3,
					"material":0
				}
			]
		}
	],
	"textures":[
		{
			"sampler":0,
			"source":0
		}
	],
	"images":[
		{
			"mimeType":"image/jpeg",
			"name":"M2020_Rover_Texture",
			"uri":"M2020_Rover_Texture.jpg"
		}
	],
	"accessors":[
		{
			"bufferView":0,
			"componentType":5126,
			"count":6820,
			"max":[
				-0.05705469846725464,
				0.6580629944801331,
				0.06327500194311142
			],
			"min":[
				-0.22659899294376373,
				-0.6580910086631775,
				-0.008171446621418
			],
			"type":"VEC3"
		},
		{
			"bufferView":1,
			"componentType":5126,
			"count":6820,
			"type":"VEC3"
		},
		{
			"bufferView":2,
			"componentType":5126,
			"count":6820,
			"type":"VEC2"
		},
		{
			"bufferView":3,
			"componentType":5123,
			"count":8325,
			"type":"SCALAR"
		}
	],
	"bufferViews":[
		{
			"buffer":0,
			"byteLength":81840,
			"byteOffset":0,
			"target":34962
		},
		{
			"buffer":0,
			"byteLength":81840,
			"byteOffset":81840,
			"target":34962
		},
		{
			"buffer":0,
			"byteLength":54560,
			"byteOffset":163680,
			"target":34962
		},
		{
			"buffer":0,
			"byteLength":16650,
			"byteOffset":218240,
			"target":34963
		}
	],
	"samplers":[
		{
			"magFilter":9729,
			"minFilter":9987
		}
	],
	"buffers":[
		{
			"byteLength":234892,
			"uri":"CenterDifferential.bin"
		}
	]
}
