{
	"asset":{
		"generator":"Khronos glTF Blender I/O v4.0.44",
		"version":"2.0"
	},
	"scene":0,
	"scenes":[
		{
			"name":"Scene",
			"nodes":[
				0
			]
		}
	],
	"nodes":[
		{
			"mesh":0,
			"name":"Mesh_0"
		}
	],
	"materials":[
		{
			"name":"Material_0",
			"pbrMetallicRoughness":{
				"baseColorTexture":{
					"index":0
				},
				"metallicFactor":0
			}
		}
	],
	"meshes":[
		{
			"name":"Mesh_0",
			"primitives":[
				{
					"attributes":{
						"POSITION":0,
						"NORMAL":1,
						"TEXCOORD_0":2
					},
					"indices":3,
					"material":0
				}
			]
		}
	],
	"textures":[
		{
			"sampler":0,
			"source":0
		}
	],
	"images":[
		{
			"mimeType":"image/jpeg",
			"name":"M2020_Rover_Texture",
			"uri":"M2020_Rover_Texture.jpg"
		}
	],
	"accessors":[
		{
			"bufferView":0,
			"componentType":5126,
			"count":379946,
			"max":[
				1.2927500009536743,
				0.7743390202522278,
				0.7149970531463623
			],
			"min":[
				-1.730780005455017,
				-0.9089979529380798,
				-0.5730029344558716
			],
			"type":"VEC3"
		},
		{
			"bufferView":1,
			"componentType":5126,
			"count":379946,
			"type":"VEC3"
		},
		{
			"bufferView":2,
			"componentType":5126,
			"count":379946,
			"type":"VEC2"
		},
		{
			"bufferView":3,
			"componentType":5125,
			"count":401439,
			"type":"SCALAR"
		}
	],
	"bufferViews":[
		{
			"buffer":0,
			"byteLength":4559352,
			"byteOffset":0,
			"target":34962
		},
		{
			"buffer":0,
			"byteLength":4559352,
			"byteOffset":4559352,
			"target":34962
		},
		{
			"buffer":0,
			"byteLength":3039568,
			"byteOffset":9118704,
			"target":34962
		},
		{
			"buffer":0,
			"byteLength":1605756,
			"byteOffset":12158272,
			"target":34963
		}
	],
	"samplers":[
		{
			"magFilter":9729,
			"minFilter":9987
		}
	],
	"buffers":[
		{
			"byteLength":13764028,
			"uri":"CHASSIS.bin"
		}
	]
}
