{
	"asset":{
		"generator":"Khronos glTF Blender I/O v4.0.44",
		"version":"2.0"
	},
	"scene":0,
	"scenes":[
		{
			"name":"Scene",
			"nodes":[
				0
			]
		}
	],
	"nodes":[
		{
			"mesh":0,
			"name":"Mesh_0"
		}
	],
	"materials":[
		{
			"name":"Material_0",
			"pbrMetallicRoughness":{
				"baseColorTexture":{
					"index":0
				},
				"metallicFactor":0
			}
		}
	],
	"meshes":[
		{
			"name":"Mesh_0",
			"primitives":[
				{
					"attributes":{
						"POSITION":0,
						"NORMAL":1,
						"TEXCOORD_0":2
					},
					"indices":3,
					"material":0
				}
			]
		}
	],
	"textures":[
		{
			"sampler":0,
			"source":0
		}
	],
	"images":[
		{
			"mimeType":"image/jpeg",
			"name":"M2020_Rover_Texture",
			"uri":"M2020_Rover_Texture.jpg"
		}
	],
	"accessors":[
		{
			"bufferView":0,
			"componentType":5126,
			"count":1520,
			"max":[
				2.903670072555542,
				0.5872009992599487,
				0.005528529640287161
			],
			"min":[
				2.8575000762939453,
				0.567978024482727,
				-0.04437695071101189
			],
			"type":"VEC3"
		},
		{
			"bufferView":1,
			"componentType":5126,
			"count":1520,
			"type":"VEC3"
		},
		{
			"bufferView":2,
			"componentType":5126,
			"count":1520,
			"type":"VEC2"
		},
		{
			"bufferView":3,
			"componentType":5123,
			"count":1572,
			"type":"SCALAR"
		}
	],
	"bufferViews":[
		{
			"buffer":0,
			"byteLength":18240,
			"byteOffset":0,
			"target":34962
		},
		{
			"buffer":0,
			"byteLength":18240,
			"byteOffset":18240,
			"target":34962
		},
		{
			"buffer":0,
			"byteLength":12160,
			"byteOffset":36480,
			"target":34962
		},
		{
			"buffer":0,
			"byteLength":3144,
			"byteOffset":48640,
			"target":34963
		}
	],
	"samplers":[
		{
			"magFilter":9729,
			"minFilter":9987
		}
	],
	"buffers":[
		{
			"byteLength":51784,
			"uri":"ContextImager_Cap.bin"
		}
	]
}
