{
	"asset":{
		"generator":"Khronos glTF Blender I/O v4.0.44",
		"version":"2.0"
	},
	"scene":0,
	"scenes":[
		{
			"name":"Scene",
			"nodes":[
				0
			]
		}
	],
	"nodes":[
		{
			"mesh":0,
			"name":"Mesh_0"
		}
	],
	"materials":[
		{
			"name":"Material_0",
			"pbrMetallicRoughness":{
				"baseColorTexture":{
					"index":0
				},
				"metallicFactor":0
			}
		}
	],
	"meshes":[
		{
			"name":"Mesh_0",
			"primitives":[
				{
					"attributes":{
						"POSITION":0,
						"NORMAL":1,
						"TEXCOORD_0":2
					},
					"indices":3,
					"material":0
				}
			]
		}
	],
	"textures":[
		{
			"sampler":0,
			"source":0
		}
	],
	"images":[
		{
			"mimeType":"image/jpeg",
			"name":"M2020_Rover_Texture",
			"uri":"M2020_Rover_Texture.jpg"
		}
	],
	"accessors":[
		{
			"bufferView":0,
			"componentType":5126,
			"count":25112,
			"max":[
				3.0050599575042725,
				0.35970601439476013,
				0.10155996680259705
			],
			"min":[
				2.51557993888855,
				0.19650200009346008,
				-0.040458131581544876
			],
			"type":"VEC3"
		},
		{
			"bufferView":1,
			"componentType":5126,
			"count":25112,
			"type":"VEC3"
		},
		{
			"bufferView":2,
			"componentType":5126,
			"count":25112,
			"type":"VEC2"
		},
		{
			"bufferView":3,
			"componentType":5123,
			"count":25485,
			"type":"SCALAR"
		}
	],
	"bufferViews":[
		{
			"buffer":0,
			"byteLength":301344,
			"byteOffset":0,
			"target":34962
		},
		{
			"buffer":0,
			"byteLength":301344,
			"byteOffset":301344,
			"target":34962
		},
		{
			"buffer":0,
			"byteLength":200896,
			"byteOffset":602688,
			"target":34962
		},
		{
			"buffer":0,
			"byteLength":50970,
			"byteOffset":803584,
			"target":34963
		}
	],
	"samplers":[
		{
			"magFilter":9729,
			"minFilter":9987
		}
	],
	"buffers":[
		{
			"byteLength":854556,
			"uri":"DrillCorrerAssy.bin"
		}
	]
}
