{
	"asset":{
		"generator":"Khronos glTF Blender I/O v4.0.44",
		"version":"2.0"
	},
	"scene":0,
	"scenes":[
		{
			"name":"Scene",
			"nodes":[
				0
			]
		}
	],
	"nodes":[
		{
			"mesh":0,
			"name":"Mesh_0"
		}
	],
	"materials":[
		{
			"name":"Material_0",
			"pbrMetallicRoughness":{
				"baseColorTexture":{
					"index":0
				},
				"metallicFactor":0
			}
		}
	],
	"meshes":[
		{
			"name":"Mesh_0",
			"primitives":[
				{
					"attributes":{
						"POSITION":0,
						"NORMAL":1,
						"TEXCOORD_0":2
					},
					"indices":3,
					"material":0
				}
			]
		}
	],
	"textures":[
		{
			"sampler":0,
			"source":0
		}
	],
	"images":[
		{
			"mimeType":"image/jpeg",
			"name":"M2020_Rover_Texture",
			"uri":"M2020_Rover_Texture.jpg"
		}
	],
	"accessors":[
		{
			"bufferView":0,
			"componentType":5126,
			"count":9690,
			"max":[
				-0.3449999988079071,
				0.5658760070800781,
				0.2984389662742615
			],
			"min":[
				-0.6809999942779541,
				0.3840410113334656,
				0.08899995684623718
			],
			"type":"VEC3"
		},
		{
			"bufferView":1,
			"componentType":5126,
			"count":9690,
			"type":"VEC3"
		},
		{
			"bufferView":2,
			"componentType":5126,
			"count":9690,
			"type":"VEC2"
		},
		{
			"bufferView":3,
			"componentType":5123,
			"count":11205,
			"type":"SCALAR"
		}
	],
	"bufferViews":[
		{
			"buffer":0,
			"byteLength":116280,
			"byteOffset":0,
			"target":34962
		},
		{
			"buffer":0,
			"byteLength":116280,
			"byteOffset":116280,
			"target":34962
		},
		{
			"buffer":0,
			"byteLength":77520,
			"byteOffset":232560,
			"target":34962
		},
		{
			"buffer":0,
			"byteLength":22410,
			"byteOffset":310080,
			"target":34963
		}
	],
	"samplers":[
		{
			"magFilter":9729,
			"minFilter":9987
		}
	],
	"buffers":[
		{
			"byteLength":332492,
			"uri":"HGA_AZ.bin"
		}
	]
}
