{
	"asset":{
		"generator":"Khronos glTF Blender I/O v4.0.44",
		"version":"2.0"
	},
	"scene":0,
	"scenes":[
		{
			"name":"Scene",
			"nodes":[
				0
			]
		}
	],
	"nodes":[
		{
			"mesh":0,
			"name":"Mesh_0"
		}
	],
	"materials":[
		{
			"name":"Material_0",
			"pbrMetallicRoughness":{
				"baseColorTexture":{
					"index":0
				},
				"metallicFactor":0
			}
		}
	],
	"meshes":[
		{
			"name":"Mesh_0",
			"primitives":[
				{
					"attributes":{
						"POSITION":0,
						"NORMAL":1,
						"TEXCOORD_0":2
					},
					"indices":3,
					"material":0
				}
			]
		}
	],
	"textures":[
		{
			"sampler":0,
			"source":0
		}
	],
	"images":[
		{
			"mimeType":"image/jpeg",
			"name":"M2020_Rover_Texture",
			"uri":"M2020_Rover_Texture.jpg"
		}
	],
	"accessors":[
		{
			"bufferView":0,
			"componentType":5126,
			"count":4742,
			"max":[
				-0.11123400181531906,
				0.609745979309082,
				0.3828589618206024
			],
			"min":[
				-0.4058780074119568,
				0.36120203137397766,
				0.1343679577112198
			],
			"type":"VEC3"
		},
		{
			"bufferView":1,
			"componentType":5126,
			"count":4742,
			"type":"VEC3"
		},
		{
			"bufferView":2,
			"componentType":5126,
			"count":4742,
			"type":"VEC2"
		},
		{
			"bufferView":3,
			"componentType":5123,
			"count":5208,
			"type":"SCALAR"
		}
	],
	"bufferViews":[
		{
			"buffer":0,
			"byteLength":56904,
			"byteOffset":0,
			"target":34962
		},
		{
			"buffer":0,
			"byteLength":56904,
			"byteOffset":56904,
			"target":34962
		},
		{
			"buffer":0,
			"byteLength":37936,
			"byteOffset":113808,
			"target":34962
		},
		{
			"buffer":0,
			"byteLength":10416,
			"byteOffset":151744,
			"target":34963
		}
	],
	"samplers":[
		{
			"magFilter":9729,
			"minFilter":9987
		}
	],
	"buffers":[
		{
			"byteLength":162160,
			"uri":"HGA_EL.bin"
		}
	]
}
