{
	"asset":{
		"generator":"Khronos glTF Blender I/O v4.0.44",
		"version":"2.0"
	},
	"scene":0,
	"scenes":[
		{
			"name":"Scene",
			"nodes":[
				0
			]
		}
	],
	"nodes":[
		{
			"mesh":0,
			"name":"Mesh_0"
		}
	],
	"materials":[
		{
			"name":"Material_0",
			"pbrMetallicRoughness":{
				"baseColorTexture":{
					"index":0
				},
				"metallicFactor":0
			}
		}
	],
	"meshes":[
		{
			"name":"Mesh_0",
			"primitives":[
				{
					"attributes":{
						"POSITION":0,
						"NORMAL":1,
						"TEXCOORD_0":2
					},
					"indices":3,
					"material":0
				}
			]
		}
	],
	"textures":[
		{
			"sampler":0,
			"source":0
		}
	],
	"images":[
		{
			"mimeType":"image/jpeg",
			"name":"M2020_Rover_Texture",
			"uri":"M2020_Rover_Texture.jpg"
		}
	],
	"accessors":[
		{
			"bufferView":0,
			"componentType":5126,
			"count":1676,
			"max":[
				0.26655998826026917,
				0.02870899997651577,
				0.028336599469184875
			],
			"min":[
				0.15583999454975128,
				-0.028721999377012253,
				-0.028605200350284576
			],
			"type":"VEC3"
		},
		{
			"bufferView":1,
			"componentType":5126,
			"count":1676,
			"type":"VEC3"
		},
		{
			"bufferView":2,
			"componentType":5126,
			"count":1676,
			"type":"VEC2"
		},
		{
			"bufferView":3,
			"componentType":5123,
			"count":1740,
			"type":"SCALAR"
		}
	],
	"bufferViews":[
		{
			"buffer":0,
			"byteLength":20112,
			"byteOffset":0,
			"target":34962
		},
		{
			"buffer":0,
			"byteLength":20112,
			"byteOffset":20112,
			"target":34962
		},
		{
			"buffer":0,
			"byteLength":13408,
			"byteOffset":40224,
			"target":34962
		},
		{
			"buffer":0,
			"byteLength":3480,
			"byteOffset":53632,
			"target":34963
		}
	],
	"samplers":[
		{
			"magFilter":9729,
			"minFilter":9987
		}
	],
	"buffers":[
		{
			"byteLength":57112,
			"uri":"LaunchBitInTurretAtZeroFeed.bin"
		}
	]
}
