{
	"asset":{
		"generator":"Khronos glTF Blender I/O v4.0.44",
		"version":"2.0"
	},
	"scene":0,
	"scenes":[
		{
			"name":"Scene",
			"nodes":[
				0
			]
		}
	],
	"nodes":[
		{
			"mesh":0,
			"name":"Mesh_0"
		}
	],
	"materials":[
		{
			"name":"Material_0",
			"pbrMetallicRoughness":{
				"baseColorTexture":{
					"index":0
				},
				"metallicFactor":0
			}
		}
	],
	"meshes":[
		{
			"name":"Mesh_0",
			"primitives":[
				{
					"attributes":{
						"POSITION":0,
						"NORMAL":1,
						"TEXCOORD_0":2
					},
					"indices":3,
					"material":0
				}
			]
		}
	],
	"textures":[
		{
			"sampler":0,
			"source":0
		}
	],
	"images":[
		{
			"mimeType":"image/jpeg",
			"name":"M2020_Rover_Texture",
			"uri":"M2020_Rover_Texture.jpg"
		}
	],
	"accessors":[
		{
			"bufferView":0,
			"componentType":5126,
			"count":20525,
			"max":[
				0.4056510031223297,
				0.13025295734405518,
				-0.44458895921707153
			],
			"min":[
				-0.9014220237731934,
				-0.511836051940918,
				-0.6906459927558899
			],
			"type":"VEC3"
		},
		{
			"bufferView":1,
			"componentType":5126,
			"count":20525,
			"type":"VEC3"
		},
		{
			"bufferView":2,
			"componentType":5126,
			"count":20525,
			"type":"VEC2"
		},
		{
			"bufferView":3,
			"componentType":5123,
			"count":22695,
			"type":"SCALAR"
		}
	],
	"bufferViews":[
		{
			"buffer":0,
			"byteLength":246300,
			"byteOffset":0,
			"target":34962
		},
		{
			"buffer":0,
			"byteLength":246300,
			"byteOffset":246300,
			"target":34962
		},
		{
			"buffer":0,
			"byteLength":164200,
			"byteOffset":492600,
			"target":34962
		},
		{
			"buffer":0,
			"byteLength":45390,
			"byteOffset":656800,
			"target":34963
		}
	],
	"samplers":[
		{
			"magFilter":9729,
			"minFilter":9987
		}
	],
	"buffers":[
		{
			"byteLength":702192,
			"uri":"MHS_DebrisShield.bin"
		}
	]
}
