{
	"asset":{
		"generator":"Khronos glTF Blender I/O v4.0.44",
		"version":"2.0"
	},
	"scene":0,
	"scenes":[
		{
			"name":"Scene",
			"nodes":[
				0
			]
		}
	],
	"nodes":[
		{
			"mesh":0,
			"name":"Mesh_0"
		}
	],
	"materials":[
		{
			"name":"Material_0",
			"pbrMetallicRoughness":{
				"baseColorTexture":{
					"index":0
				},
				"metallicFactor":0
			}
		}
	],
	"meshes":[
		{
			"name":"Mesh_0",
			"primitives":[
				{
					"attributes":{
						"POSITION":0,
						"NORMAL":1,
						"TEXCOORD_0":2
					},
					"indices":3,
					"material":0
				}
			]
		}
	],
	"textures":[
		{
			"sampler":0,
			"source":0
		}
	],
	"images":[
		{
			"mimeType":"image/jpeg",
			"name":"M2020_Rover_Texture",
			"uri":"M2020_Rover_Texture.jpg"
		}
	],
	"accessors":[
		{
			"bufferView":0,
			"componentType":5126,
			"count":5565,
			"max":[
				0.38624098896980286,
				0.031928300857543945,
				0.0320780985057354
			],
			"min":[
				0.1580599993467331,
				-0.032046400010585785,
				-0.032052699476480484
			],
			"type":"VEC3"
		},
		{
			"bufferView":1,
			"componentType":5126,
			"count":5565,
			"type":"VEC3"
		},
		{
			"bufferView":2,
			"componentType":5126,
			"count":5565,
			"type":"VEC2"
		},
		{
			"bufferView":3,
			"componentType":5123,
			"count":6072,
			"type":"SCALAR"
		}
	],
	"bufferViews":[
		{
			"buffer":0,
			"byteLength":66780,
			"byteOffset":0,
			"target":34962
		},
		{
			"buffer":0,
			"byteLength":66780,
			"byteOffset":66780,
			"target":34962
		},
		{
			"buffer":0,
			"byteLength":44520,
			"byteOffset":133560,
			"target":34962
		},
		{
			"buffer":0,
			"byteLength":12144,
			"byteOffset":178080,
			"target":34963
		}
	],
	"samplers":[
		{
			"magFilter":9729,
			"minFilter":9987
		}
	],
	"buffers":[
		{
			"byteLength":190224,
			"uri":"RegolithBitInTurretAtZeroFeed.bin"
		}
	]
}
