{
	"asset":{
		"generator":"Khronos glTF Blender I/O v4.0.44",
		"version":"2.0"
	},
	"scene":0,
	"scenes":[
		{
			"name":"Scene",
			"nodes":[
				0
			]
		}
	],
	"nodes":[
		{
			"mesh":0,
			"name":"Mesh_0"
		}
	],
	"materials":[
		{
			"name":"Material_0",
			"pbrMetallicRoughness":{
				"baseColorTexture":{
					"index":0
				},
				"metallicFactor":0
			}
		}
	],
	"meshes":[
		{
			"name":"Mesh_0",
			"primitives":[
				{
					"attributes":{
						"POSITION":0,
						"NORMAL":1,
						"TEXCOORD_0":2
					},
					"indices":3,
					"material":0
				}
			]
		}
	],
	"textures":[
		{
			"sampler":0,
			"source":0
		}
	],
	"images":[
		{
			"mimeType":"image/jpeg",
			"name":"M2020_Rover_Texture",
			"uri":"M2020_Rover_Texture.jpg"
		}
	],
	"accessors":[
		{
			"bufferView":0,
			"componentType":5126,
			"count":22333,
			"max":[
				1.1731599569320679,
				-0.7082750201225281,
				-0.15142393112182617
			],
			"min":[
				-0.6069560050964355,
				-1.1522200107574463,
				-0.5470019578933716
			],
			"type":"VEC3"
		},
		{
			"bufferView":1,
			"componentType":5126,
			"count":22333,
			"type":"VEC3"
		},
		{
			"bufferView":2,
			"componentType":5126,
			"count":22333,
			"type":"VEC2"
		},
		{
			"bufferView":3,
			"componentType":5123,
			"count":23643,
			"type":"SCALAR"
		}
	],
	"bufferViews":[
		{
			"buffer":0,
			"byteLength":267996,
			"byteOffset":0,
			"target":34962
		},
		{
			"buffer":0,
			"byteLength":267996,
			"byteOffset":267996,
			"target":34962
		},
		{
			"buffer":0,
			"byteLength":178664,
			"byteOffset":535992,
			"target":34962
		},
		{
			"buffer":0,
			"byteLength":47286,
			"byteOffset":714656,
			"target":34963
		}
	],
	"samplers":[
		{
			"magFilter":9729,
			"minFilter":9987
		}
	],
	"buffers":[
		{
			"byteLength":761944,
			"uri":"Right_Rocker.bin"
		}
	]
}
