{
	"asset":{
		"generator":"Khronos glTF Blender I/O v4.0.44",
		"version":"2.0"
	},
	"scene":0,
	"scenes":[
		{
			"name":"Scene",
			"nodes":[
				0
			]
		}
	],
	"nodes":[
		{
			"mesh":0,
			"name":"Mesh_0"
		}
	],
	"materials":[
		{
			"name":"Material_0",
			"pbrMetallicRoughness":{
				"baseColorTexture":{
					"index":0
				},
				"metallicFactor":0
			}
		}
	],
	"meshes":[
		{
			"name":"Mesh_0",
			"primitives":[
				{
					"attributes":{
						"POSITION":0,
						"NORMAL":1,
						"TEXCOORD_0":2
					},
					"indices":3,
					"material":0
				}
			]
		}
	],
	"textures":[
		{
			"sampler":0,
			"source":0
		}
	],
	"images":[
		{
			"mimeType":"image/jpeg",
			"name":"M2020_Rover_Texture",
			"uri":"M2020_Rover_Texture.jpg"
		}
	],
	"accessors":[
		{
			"bufferView":0,
			"componentType":5126,
			"count":24682,
			"max":[
				0.0628340020775795,
				-0.7346780300140381,
				-0.2775019109249115
			],
			"min":[
				-1.2437100410461426,
				-1.25954008102417,
				-0.9362089037895203
			],
			"type":"VEC3"
		},
		{
			"bufferView":1,
			"componentType":5126,
			"count":24682,
			"type":"VEC3"
		},
		{
			"bufferView":2,
			"componentType":5126,
			"count":24682,
			"type":"VEC2"
		},
		{
			"bufferView":3,
			"componentType":5123,
			"count":26049,
			"type":"SCALAR"
		}
	],
	"bufferViews":[
		{
			"buffer":0,
			"byteLength":296184,
			"byteOffset":0,
			"target":34962
		},
		{
			"buffer":0,
			"byteLength":296184,
			"byteOffset":296184,
			"target":34962
		},
		{
			"buffer":0,
			"byteLength":197456,
			"byteOffset":592368,
			"target":34962
		},
		{
			"buffer":0,
			"byteLength":52098,
			"byteOffset":789824,
			"target":34963
		}
	],
	"samplers":[
		{
			"magFilter":9729,
			"minFilter":9987
		}
	],
	"buffers":[
		{
			"byteLength":841924,
			"uri":"Right_Bogie.bin"
		}
	]
}
