{
	"asset":{
		"generator":"Khronos glTF Blender I/O v4.0.44",
		"version":"2.0"
	},
	"scene":0,
	"scenes":[
		{
			"name":"Scene",
			"nodes":[
				0
			]
		}
	],
	"nodes":[
		{
			"mesh":0,
			"name":"Mesh_0"
		}
	],
	"materials":[
		{
			"name":"Material_0",
			"pbrMetallicRoughness":{
				"baseColorTexture":{
					"index":0
				},
				"metallicFactor":0
			}
		}
	],
	"meshes":[
		{
			"name":"Mesh_0",
			"primitives":[
				{
					"attributes":{
						"POSITION":0,
						"NORMAL":1,
						"TEXCOORD_0":2
					},
					"indices":3,
					"material":0
				}
			]
		}
	],
	"textures":[
		{
			"sampler":0,
			"source":0
		}
	],
	"images":[
		{
			"mimeType":"image/jpeg",
			"name":"M2020_Rover_Texture",
			"uri":"M2020_Rover_Texture.jpg"
		}
	],
	"accessors":[
		{
			"bufferView":0,
			"componentType":5126,
			"count":13788,
			"max":[
				0.8283119797706604,
				-0.446010947227478,
				0.8463830351829529
			],
			"min":[
				0.5996990203857422,
				-0.6722029447555542,
				0.5555850863456726
			],
			"type":"VEC3"
		},
		{
			"bufferView":1,
			"componentType":5126,
			"count":13788,
			"type":"VEC3"
		},
		{
			"bufferView":2,
			"componentType":5126,
			"count":13788,
			"type":"VEC2"
		},
		{
			"bufferView":3,
			"componentType":5123,
			"count":14820,
			"type":"SCALAR"
		}
	],
	"bufferViews":[
		{
			"buffer":0,
			"byteLength":165456,
			"byteOffset":0,
			"target":34962
		},
		{
			"buffer":0,
			"byteLength":165456,
			"byteOffset":165456,
			"target":34962
		},
		{
			"buffer":0,
			"byteLength":110304,
			"byteOffset":330912,
			"target":34962
		},
		{
			"buffer":0,
			"byteLength":29640,
			"byteOffset":441216,
			"target":34963
		}
	],
	"samplers":[
		{
			"magFilter":9729,
			"minFilter":9987
		}
	],
	"buffers":[
		{
			"byteLength":470856,
			"uri":"RSM.bin"
		}
	]
}
