{
	"asset":{
		"generator":"Khronos glTF Blender I/O v4.0.44",
		"version":"2.0"
	},
	"scene":0,
	"scenes":[
		{
			"name":"Scene",
			"nodes":[
				0
			]
		}
	],
	"nodes":[
		{
			"mesh":0,
			"name":"Mesh_0"
		}
	],
	"materials":[
		{
			"name":"Material_0",
			"pbrMetallicRoughness":{
				"baseColorTexture":{
					"index":0
				},
				"metallicFactor":0
			}
		}
	],
	"meshes":[
		{
			"name":"Mesh_0",
			"primitives":[
				{
					"attributes":{
						"POSITION":0,
						"NORMAL":1,
						"TEXCOORD_0":2
					},
					"indices":3,
					"material":0
				}
			]
		}
	],
	"textures":[
		{
			"sampler":0,
			"source":0
		}
	],
	"images":[
		{
			"mimeType":"image/jpeg",
			"name":"M2020_Rover_Texture",
			"uri":"M2020_Rover_Texture.jpg"
		}
	],
	"accessors":[
		{
			"bufferView":0,
			"componentType":5126,
			"count":42658,
			"max":[
				0.8536660075187683,
				-0.2808259129524231,
				1.0974700450897217
			],
			"min":[
				0.549938976764679,
				-0.8301829695701599,
				0.6294389963150024
			],
			"type":"VEC3"
		},
		{
			"bufferView":1,
			"componentType":5126,
			"count":42658,
			"type":"VEC3"
		},
		{
			"bufferView":2,
			"componentType":5126,
			"count":42658,
			"type":"VEC2"
		},
		{
			"bufferView":3,
			"componentType":5123,
			"count":44061,
			"type":"SCALAR"
		}
	],
	"bufferViews":[
		{
			"buffer":0,
			"byteLength":511896,
			"byteOffset":0,
			"target":34962
		},
		{
			"buffer":0,
			"byteLength":511896,
			"byteOffset":511896,
			"target":34962
		},
		{
			"buffer":0,
			"byteLength":341264,
			"byteOffset":1023792,
			"target":34962
		},
		{
			"buffer":0,
			"byteLength":88122,
			"byteOffset":1365056,
			"target":34963
		}
	],
	"samplers":[
		{
			"magFilter":9729,
			"minFilter":9987
		}
	],
	"buffers":[
		{
			"byteLength":1453180,
			"uri":"RSM_Head.bin"
		}
	]
}
