{
	"asset":{
		"generator":"Khronos glTF Blender I/O v4.0.44",
		"version":"2.0"
	},
	"scene":0,
	"scenes":[
		{
			"name":"Scene",
			"nodes":[
				0
			]
		}
	],
	"nodes":[
		{
			"mesh":0,
			"name":"Mesh_0"
		}
	],
	"materials":[
		{
			"name":"Material_0",
			"pbrMetallicRoughness":{
				"baseColorTexture":{
					"index":0
				},
				"metallicFactor":0
			}
		}
	],
	"meshes":[
		{
			"name":"Mesh_0",
			"primitives":[
				{
					"attributes":{
						"POSITION":0,
						"NORMAL":1,
						"TEXCOORD_0":2
					},
					"indices":3,
					"material":0
				}
			]
		}
	],
	"textures":[
		{
			"sampler":0,
			"source":0
		}
	],
	"images":[
		{
			"mimeType":"image/jpeg",
			"name":"M2020_Rover_Texture",
			"uri":"M2020_Rover_Texture.jpg"
		}
	],
	"accessors":[
		{
			"bufferView":0,
			"componentType":5126,
			"count":5540,
			"max":[
				0.375,
				0.015995793044567108,
				-0.06594999879598618
			],
			"min":[
				-0.18199999630451202,
				-0.015978306531906128,
				-0.09449149668216705
			],
			"type":"VEC3"
		},
		{
			"bufferView":1,
			"componentType":5126,
			"count":5540,
			"type":"VEC3"
		},
		{
			"bufferView":2,
			"componentType":5126,
			"count":5540,
			"type":"VEC2"
		},
		{
			"bufferView":3,
			"componentType":5123,
			"count":5604,
			"type":"SCALAR"
		}
	],
	"bufferViews":[
		{
			"buffer":0,
			"byteLength":66480,
			"byteOffset":0,
			"target":34962
		},
		{
			"buffer":0,
			"byteLength":66480,
			"byteOffset":66480,
			"target":34962
		},
		{
			"buffer":0,
			"byteLength":44320,
			"byteOffset":132960,
			"target":34962
		},
		{
			"buffer":0,
			"byteLength":11208,
			"byteOffset":177280,
			"target":34963
		}
	],
	"samplers":[
		{
			"magFilter":9729,
			"minFilter":9987
		}
	],
	"buffers":[
		{
			"byteLength":188488,
			"uri":"StabilizerFarInTurret.bin"
		}
	]
}
