{
	"asset":{
		"generator":"Khronos glTF Blender I/O v4.0.44",
		"version":"2.0"
	},
	"scene":0,
	"scenes":[
		{
			"name":"Scene",
			"nodes":[
				0
			]
		}
	],
	"nodes":[
		{
			"mesh":0,
			"name":"Mesh_0"
		}
	],
	"materials":[
		{
			"name":"Material_0",
			"pbrMetallicRoughness":{
				"baseColorTexture":{
					"index":0
				},
				"metallicFactor":0
			}
		}
	],
	"meshes":[
		{
			"name":"Mesh_0",
			"primitives":[
				{
					"attributes":{
						"POSITION":0,
						"NORMAL":1,
						"TEXCOORD_0":2
					},
					"indices":3,
					"material":0
				}
			]
		}
	],
	"textures":[
		{
			"sampler":0,
			"source":0
		}
	],
	"images":[
		{
			"mimeType":"image/jpeg",
			"name":"M2020_Rover_Texture",
			"uri":"M2020_Rover_Texture.jpg"
		}
	],
	"accessors":[
		{
			"bufferView":0,
			"componentType":5126,
			"count":17651,
			"max":[
				-1.0604900121688843,
				-0.7334250807762146,
				-0.45018890500068665
			],
			"min":[
				-1.2693500518798828,
				-1.1663299798965454,
				-0.9355608820915222
			],
			"type":"VEC3"
		},
		{
			"bufferView":1,
			"componentType":5126,
			"count":17651,
			"type":"VEC3"
		},
		{
			"bufferView":2,
			"componentType":5126,
			"count":17651,
			"type":"VEC2"
		},
		{
			"bufferView":3,
			"componentType":5123,
			"count":17982,
			"type":"SCALAR"
		}
	],
	"bufferViews":[
		{
			"buffer":0,
			"byteLength":211812,
			"byteOffset":0,
			"target":34962
		},
		{
			"buffer":0,
			"byteLength":211812,
			"byteOffset":211812,
			"target":34962
		},
		{
			"buffer":0,
			"byteLength":141208,
			"byteOffset":423624,
			"target":34962
		},
		{
			"buffer":0,
			"byteLength":35964,
			"byteOffset":564832,
			"target":34963
		}
	],
	"samplers":[
		{
			"magFilter":9729,
			"minFilter":9987
		}
	],
	"buffers":[
		{
			"byteLength":600796,
			"uri":"Steer_RightRear.bin"
		}
	]
}
