{
	"asset":{
		"generator":"Khronos glTF Blender I/O v4.0.44",
		"version":"2.0"
	},
	"scene":0,
	"scenes":[
		{
			"name":"Scene",
			"nodes":[
				0
			]
		}
	],
	"nodes":[
		{
			"mesh":0,
			"name":"Mesh_0"
		}
	],
	"materials":[
		{
			"name":"Material_0",
			"pbrMetallicRoughness":{
				"baseColorTexture":{
					"index":0
				},
				"metallicFactor":0
			}
		}
	],
	"meshes":[
		{
			"name":"Mesh_0",
			"primitives":[
				{
					"attributes":{
						"POSITION":0,
						"NORMAL":1,
						"TEXCOORD_0":2
					},
					"indices":3,
					"material":0
				}
			]
		}
	],
	"textures":[
		{
			"sampler":0,
			"source":0
		}
	],
	"images":[
		{
			"mimeType":"image/jpeg",
			"name":"M2020_Rover_Texture",
			"uri":"M2020_Rover_Texture.jpg"
		}
	],
	"accessors":[
		{
			"bufferView":0,
			"componentType":5126,
			"count":29503,
			"max":[
				1.1993499994277954,
				1.1915099620819092,
				-0.29077309370040894
			],
			"min":[
				0.977961003780365,
				0.6337169408798218,
				-0.937018096446991
			],
			"type":"VEC3"
		},
		{
			"bufferView":1,
			"componentType":5126,
			"count":29503,
			"type":"VEC3"
		},
		{
			"bufferView":2,
			"componentType":5126,
			"count":29503,
			"type":"VEC2"
		},
		{
			"bufferView":3,
			"componentType":5123,
			"count":30126,
			"type":"SCALAR"
		}
	],
	"bufferViews":[
		{
			"buffer":0,
			"byteLength":354036,
			"byteOffset":0,
			"target":34962
		},
		{
			"buffer":0,
			"byteLength":354036,
			"byteOffset":354036,
			"target":34962
		},
		{
			"buffer":0,
			"byteLength":236024,
			"byteOffset":708072,
			"target":34962
		},
		{
			"buffer":0,
			"byteLength":60252,
			"byteOffset":944096,
			"target":34963
		}
	],
	"samplers":[
		{
			"magFilter":9729,
			"minFilter":9987
		}
	],
	"buffers":[
		{
			"byteLength":1004348,
			"uri":"Steer_LeftFront.bin"
		}
	]
}
