{
	"asset":{
		"generator":"Khronos glTF Blender I/O v4.0.44",
		"version":"2.0"
	},
	"scene":0,
	"scenes":[
		{
			"name":"Scene",
			"nodes":[
				0
			]
		}
	],
	"nodes":[
		{
			"mesh":0,
			"name":"Mesh_0"
		}
	],
	"materials":[
		{
			"name":"Material_0",
			"pbrMetallicRoughness":{
				"baseColorTexture":{
					"index":0
				},
				"metallicFactor":0
			}
		}
	],
	"meshes":[
		{
			"name":"Mesh_0",
			"primitives":[
				{
					"attributes":{
						"POSITION":0,
						"NORMAL":1,
						"TEXCOORD_0":2
					},
					"indices":3,
					"material":0
				}
			]
		}
	],
	"textures":[
		{
			"sampler":0,
			"source":0
		}
	],
	"images":[
		{
			"mimeType":"image/jpeg",
			"name":"M2020_Rover_Texture",
			"uri":"M2020_Rover_Texture.jpg"
		}
	],
	"accessors":[
		{
			"bufferView":0,
			"componentType":5126,
			"count":396122,
			"max":[
				3.076770067214966,
				0.5979819893836975,
				0.1619439572095871
			],
			"min":[
				2.3671200275421143,
				-0.06676699966192245,
				-0.1460910141468048
			],
			"type":"VEC3"
		},
		{
			"bufferView":1,
			"componentType":5126,
			"count":396122,
			"type":"VEC3"
		},
		{
			"bufferView":2,
			"componentType":5126,
			"count":396122,
			"type":"VEC2"
		},
		{
			"bufferView":3,
			"componentType":5125,
			"count":418281,
			"type":"SCALAR"
		}
	],
	"bufferViews":[
		{
			"buffer":0,
			"byteLength":4753464,
			"byteOffset":0,
			"target":34962
		},
		{
			"buffer":0,
			"byteLength":4753464,
			"byteOffset":4753464,
			"target":34962
		},
		{
			"buffer":0,
			"byteLength":3168976,
			"byteOffset":9506928,
			"target":34962
		},
		{
			"buffer":0,
			"byteLength":1673124,
			"byteOffset":12675904,
			"target":34963
		}
	],
	"samplers":[
		{
			"magFilter":9729,
			"minFilter":9987
		}
	],
	"buffers":[
		{
			"byteLength":14349028,
			"uri":"Turret.bin"
		}
	]
}
