{
	"asset":{
		"generator":"Khronos glTF Blender I/O v4.0.44",
		"version":"2.0"
	},
	"scene":0,
	"scenes":[
		{
			"name":"Scene",
			"nodes":[
				0
			]
		}
	],
	"nodes":[
		{
			"mesh":0,
			"name":"Mesh_0"
		}
	],
	"materials":[
		{
			"name":"Material_0",
			"pbrMetallicRoughness":{
				"baseColorTexture":{
					"index":0
				},
				"metallicFactor":0
			}
		}
	],
	"meshes":[
		{
			"name":"Mesh_0",
			"primitives":[
				{
					"attributes":{
						"POSITION":0,
						"NORMAL":1,
						"TEXCOORD_0":2
					},
					"indices":3,
					"material":0
				}
			]
		}
	],
	"textures":[
		{
			"sampler":0,
			"source":0
		}
	],
	"images":[
		{
			"mimeType":"image/jpeg",
			"name":"M2020_Rover_Texture",
			"uri":"M2020_Rover_Texture.jpg"
		}
	],
	"accessors":[
		{
			"bufferView":0,
			"componentType":5126,
			"count":2967,
			"max":[
				2.644819974899292,
				0.599120020866394,
				0.056234147399663925
			],
			"min":[
				2.5990700721740723,
				0.5783510208129883,
				0.006215768866240978
			],
			"type":"VEC3"
		},
		{
			"bufferView":1,
			"componentType":5126,
			"count":2967,
			"type":"VEC3"
		},
		{
			"bufferView":2,
			"componentType":5126,
			"count":2967,
			"type":"VEC2"
		},
		{
			"bufferView":3,
			"componentType":5123,
			"count":3000,
			"type":"SCALAR"
		}
	],
	"bufferViews":[
		{
			"buffer":0,
			"byteLength":35604,
			"byteOffset":0,
			"target":34962
		},
		{
			"buffer":0,
			"byteLength":35604,
			"byteOffset":35604,
			"target":34962
		},
		{
			"buffer":0,
			"byteLength":23736,
			"byteOffset":71208,
			"target":34962
		},
		{
			"buffer":0,
			"byteLength":6000,
			"byteOffset":94944,
			"target":34963
		}
	],
	"samplers":[
		{
			"magFilter":9729,
			"minFilter":9987
		}
	],
	"buffers":[
		{
			"byteLength":100944,
			"uri":"WATSON_Camera_Cap.bin"
		}
	]
}
