{
	"asset":{
		"generator":"Khronos glTF Blender I/O v4.0.44",
		"version":"2.0"
	},
	"scene":0,
	"scenes":[
		{
			"name":"Scene",
			"nodes":[
				0
			]
		}
	],
	"nodes":[
		{
			"mesh":0,
			"name":"Mesh_0"
		}
	],
	"materials":[
		{
			"name":"Material_0",
			"pbrMetallicRoughness":{
				"baseColorTexture":{
					"index":0
				},
				"metallicFactor":0
			}
		}
	],
	"meshes":[
		{
			"name":"Mesh_0",
			"primitives":[
				{
					"attributes":{
						"POSITION":0,
						"NORMAL":1,
						"TEXCOORD_0":2
					},
					"indices":3,
					"material":0
				}
			]
		}
	],
	"textures":[
		{
			"sampler":0,
			"source":0
		}
	],
	"images":[
		{
			"mimeType":"image/jpeg",
			"name":"M2020_Rover_Texture",
			"uri":"M2020_Rover_Texture.jpg"
		}
	],
	"accessors":[
		{
			"bufferView":0,
			"componentType":5126,
			"count":9586,
			"max":[
				-0.9103130102157593,
				-0.8972120881080627,
				-0.616037905216217
			],
			"min":[
				-1.4200600385665894,
				-1.2278001308441162,
				-1.1257898807525635
			],
			"type":"VEC3"
		},
		{
			"bufferView":1,
			"componentType":5126,
			"count":9586,
			"type":"VEC3"
		},
		{
			"bufferView":2,
			"componentType":5126,
			"count":9586,
			"type":"VEC2"
		},
		{
			"bufferView":3,
			"componentType":5123,
			"count":10116,
			"type":"SCALAR"
		}
	],
	"bufferViews":[
		{
			"buffer":0,
			"byteLength":115032,
			"byteOffset":0,
			"target":34962
		},
		{
			"buffer":0,
			"byteLength":115032,
			"byteOffset":115032,
			"target":34962
		},
		{
			"buffer":0,
			"byteLength":76688,
			"byteOffset":230064,
			"target":34962
		},
		{
			"buffer":0,
			"byteLength":20232,
			"byteOffset":306752,
			"target":34963
		}
	],
	"samplers":[
		{
			"magFilter":9729,
			"minFilter":9987
		}
	],
	"buffers":[
		{
			"byteLength":326984,
			"uri":"Wheel_RightRear.bin"
		}
	]
}
