{
	"asset":{
		"generator":"Khronos glTF Blender I/O v4.0.44",
		"version":"2.0"
	},
	"scene":0,
	"scenes":[
		{
			"name":"Scene",
			"nodes":[
				0
			]
		}
	],
	"nodes":[
		{
			"mesh":0,
			"name":"Mesh_0"
		}
	],
	"materials":[
		{
			"name":"Material_0",
			"pbrMetallicRoughness":{
				"baseColorTexture":{
					"index":0
				},
				"metallicFactor":0
			}
		}
	],
	"meshes":[
		{
			"name":"Mesh_0",
			"primitives":[
				{
					"attributes":{
						"POSITION":0,
						"NORMAL":1,
						"TEXCOORD_0":2
					},
					"indices":3,
					"material":0
				}
			]
		}
	],
	"textures":[
		{
			"sampler":0,
			"source":0
		}
	],
	"images":[
		{
			"mimeType":"image/jpeg",
			"name":"M2020_Rover_Texture",
			"uri":"M2020_Rover_Texture.jpg"
		}
	],
	"accessors":[
		{
			"bufferView":0,
			"componentType":5126,
			"count":9558,
			"max":[
				1.349679946899414,
				1.2277899980545044,
				-0.6160361170768738
			],
			"min":[
				0.8399230241775513,
				0.8972018957138062,
				-1.1257901191711426
			],
			"type":"VEC3"
		},
		{
			"bufferView":1,
			"componentType":5126,
			"count":9558,
			"type":"VEC3"
		},
		{
			"bufferView":2,
			"componentType":5126,
			"count":9558,
			"type":"VEC2"
		},
		{
			"bufferView":3,
			"componentType":5123,
			"count":10116,
			"type":"SCALAR"
		}
	],
	"bufferViews":[
		{
			"buffer":0,
			"byteLength":114696,
			"byteOffset":0,
			"target":34962
		},
		{
			"buffer":0,
			"byteLength":114696,
			"byteOffset":114696,
			"target":34962
		},
		{
			"buffer":0,
			"byteLength":76464,
			"byteOffset":229392,
			"target":34962
		},
		{
			"buffer":0,
			"byteLength":20232,
			"byteOffset":305856,
			"target":34963
		}
	],
	"samplers":[
		{
			"magFilter":9729,
			"minFilter":9987
		}
	],
	"buffers":[
		{
			"byteLength":326088,
			"uri":"Wheel_LeftFront.bin"
		}
	]
}
