{
	"asset":{
		"generator":"Khronos glTF Blender I/O v4.0.44",
		"version":"2.0"
	},
	"scene":0,
	"scenes":[
		{
			"name":"Scene",
			"nodes":[
				0
			]
		}
	],
	"nodes":[
		{
			"mesh":0,
			"name":"Mesh_0"
		}
	],
	"materials":[
		{
			"name":"Material_0",
			"pbrMetallicRoughness":{
				"baseColorTexture":{
					"index":0
				},
				"metallicFactor":0
			}
		}
	],
	"meshes":[
		{
			"name":"Mesh_0",
			"primitives":[
				{
					"attributes":{
						"POSITION":0,
						"NORMAL":1,
						"TEXCOORD_0":2
					},
					"indices":3,
					"material":0
				}
			]
		}
	],
	"textures":[
		{
			"sampler":0,
			"source":0
		}
	],
	"images":[
		{
			"mimeType":"image/jpeg",
			"name":"M2020_Rover_Texture",
			"uri":"M2020_Rover_Texture.jpg"
		}
	],
	"accessors":[
		{
			"bufferView":0,
			"componentType":5126,
			"count":9496,
			"max":[
				0.1645990014076233,
				-1.0191999673843384,
				-0.6161139011383057
			],
			"min":[
				-0.3450019955635071,
				-1.349790096282959,
				-1.125709891319275
			],
			"type":"VEC3"
		},
		{
			"bufferView":1,
			"componentType":5126,
			"count":9496,
			"type":"VEC3"
		},
		{
			"bufferView":2,
			"componentType":5126,
			"count":9496,
			"type":"VEC2"
		},
		{
			"bufferView":3,
			"componentType":5123,
			"count":10116,
			"type":"SCALAR"
		}
	],
	"bufferViews":[
		{
			"buffer":0,
			"byteLength":113952,
			"byteOffset":0,
			"target":34962
		},
		{
			"buffer":0,
			"byteLength":113952,
			"byteOffset":113952,
			"target":34962
		},
		{
			"buffer":0,
			"byteLength":75968,
			"byteOffset":227904,
			"target":34962
		},
		{
			"buffer":0,
			"byteLength":20232,
			"byteOffset":303872,
			"target":34963
		}
	],
	"samplers":[
		{
			"magFilter":9729,
			"minFilter":9987
		}
	],
	"buffers":[
		{
			"byteLength":324104,
			"uri":"Wheel_RightMiddle.bin"
		}
	]
}
