{
	"asset":{
		"generator":"Khronos glTF Blender I/O v4.0.44",
		"version":"2.0"
	},
	"scene":0,
	"scenes":[
		{
			"name":"Scene",
			"nodes":[
				0
			]
		}
	],
	"nodes":[
		{
			"mesh":0,
			"name":"Mesh_0"
		}
	],
	"materials":[
		{
			"name":"Material_0",
			"pbrMetallicRoughness":{
				"baseColorTexture":{
					"index":0
				},
				"metallicFactor":0
			}
		}
	],
	"meshes":[
		{
			"name":"Mesh_0",
			"primitives":[
				{
					"attributes":{
						"POSITION":0,
						"NORMAL":1,
						"TEXCOORD_0":2
					},
					"indices":3,
					"material":0
				}
			]
		}
	],
	"textures":[
		{
			"sampler":0,
			"source":0
		}
	],
	"images":[
		{
			"mimeType":"image/jpeg",
			"name":"M2020_Rover_Texture",
			"uri":"M2020_Rover_Texture.jpg"
		}
	],
	"accessors":[
		{
			"bufferView":0,
			"componentType":5126,
			"count":9516,
			"max":[
				0.16405799984931946,
				1.347790002822876,
				-0.616658091545105
			],
			"min":[
				-0.3444550037384033,
				1.0171998739242554,
				-1.125170111656189
			],
			"type":"VEC3"
		},
		{
			"bufferView":1,
			"componentType":5126,
			"count":9516,
			"type":"VEC3"
		},
		{
			"bufferView":2,
			"componentType":5126,
			"count":9516,
			"type":"VEC2"
		},
		{
			"bufferView":3,
			"componentType":5123,
			"count":10116,
			"type":"SCALAR"
		}
	],
	"bufferViews":[
		{
			"buffer":0,
			"byteLength":114192,
			"byteOffset":0,
			"target":34962
		},
		{
			"buffer":0,
			"byteLength":114192,
			"byteOffset":114192,
			"target":34962
		},
		{
			"buffer":0,
			"byteLength":76128,
			"byteOffset":228384,
			"target":34962
		},
		{
			"buffer":0,
			"byteLength":20232,
			"byteOffset":304512,
			"target":34963
		}
	],
	"samplers":[
		{
			"magFilter":9729,
			"minFilter":9987
		}
	],
	"buffers":[
		{
			"byteLength":324744,
			"uri":"Wheel_LeftMiddle.bin"
		}
	]
}
